<svg xmlns="http://www.w3.org/2000/svg" width="71" height="61" viewBox="0 0 71 61"><g><g><path fill="#fff" d="M8.462.2h53.899a8.277 8.277 0 0 1 8.29 8.299v31.095a8.27 8.27 0 0 1-8.29 8.292H43.706V54.1h8.29c1.144 0 2.075.93 2.075 2.075v4.149h-37.32v-4.15c0-1.144.932-2.074 2.076-2.074h8.29v-6.214H8.462a8.27 8.27 0 0 1-8.29-8.292V8.499c0-4.595 3.695-8.3 8.29-8.3zm2.075 8.299a2.07 2.07 0 0 0-2.075 2.066V37.52c0 1.143.931 2.073 2.075 2.073h49.749a2.07 2.07 0 0 0 2.075-2.073V10.565a2.064 2.064 0 0 0-2.075-2.066z"/></g></g></svg>