<svg xmlns="http://www.w3.org/2000/svg" width="78" height="71" viewBox="0 0 78 71"><g><g><path fill="#fff" d="M37.439.591c2.771 0 5.034 1.915 5.53 4.532h.145l18.17 20.44H52.19L39.646 11.441c-.69.287-1.418.5-2.207.5-.776 0-1.519-.213-2.195-.5l-12.559 14.12h-9.078L31.764 5.123h.144c.511-2.617 2.772-4.532 5.53-4.532zM4.529 30.097h68.105a4.527 4.527 0 0 1 4.533 4.547v2.27c0 2.395-1.84 4.28-4.178 4.47l-7.173 25.038c-2.274 4.543-4.532 4.543-6.806 4.543H18.139c-2.258 0-4.532 0-6.805-4.543L4.175 41.383c-2.353-.19-4.191-2.074-4.191-4.47v-2.27a4.537 4.537 0 0 1 4.546-4.546zM17.3 41.448c-2.517 0-4.156 1.896-3.626 4.257l3.193 14.123c.533 2.372 3.016 4.322 5.53 4.322h1.143c2.517 0 4.147-1.95 3.613-4.322L23.96 45.705c-.53-2.361-3.014-4.257-5.531-4.257zm21.283 0a4.537 4.537 0 0 0-4.546 4.546v13.62a4.528 4.528 0 0 0 4.546 4.536 4.518 4.518 0 0 0 4.532-4.535v-13.62a4.527 4.527 0 0 0-4.532-4.547zm20.14 0c-2.518 0-4.998 1.896-5.532 4.257l-3.192 14.123c-.53 2.372 1.099 4.322 3.612 4.322h1.143c2.518 0 4.998-1.95 5.532-4.322l3.192-14.123c.53-2.361-1.097-4.257-3.612-4.257z"/></g></g></svg>